<svg xmlns="http://www.w3.org/2000/svg" viewBox="0 0 67.733 67.733"><path d="M33.867.546C15.457.546.547 15.458.547 33.866c0 18.41 14.91 33.32 33.32 33.32 18.408 0 33.32-14.91 33.32-33.32 0-18.408-14.912-33.32-33.32-33.32zm0 3.886c16.261 0 29.434 13.173 29.434 29.435S50.128 63.3 33.867 63.3c-16.263 0-29.435-13.172-29.435-29.434S17.604 4.432 33.867 4.432zm0 4.488C20.092 8.92 8.92 20.095 8.92 33.867c0 13.773 11.173 24.946 24.946 24.946 13.772 0 24.947-11.173 24.947-24.946 0-13.772-11.174-24.947-24.947-24.947zm2.243 3.843l3.572.016-2.61 15.425 7.268-.009h.133a1.84 1.84 0 0 1 1.832 1.83c0 .41-.167.755-.363 1.03l.012.008-.014.02L31.589 54.97H28.06l2.545-15.406-7.236.012c-.014 0-.058.003-.11.003a1.842 1.842 0 0 1-1.832-1.833c0-.322.103-.542.186-.736.082-.195.166-.346.166-.346l.004-.01z"/></svg>
